# xmcd
#
# Track frame offsets:
#	150
#	60071
#	140765
#
# Disc length: 2260 seconds
#
# Revision: 0
# Processed by: cddbd v1.5.2PL0 Copyright (c) Steve Scherf et al.
# Submitted via: audiograbber 1.83.01
#
DISCID=2008d203
DTITLE=Grateful Dead - 94-12-09 Oakland Coliseum Arena, Oakland CA
DYEAR=1900
DGENRE=
TTITLE0=Scarlet Begonias
TTITLE1=Fire On The Mountain
TTITLE2=Way To Go Home
EXTD=
EXTT0=
EXTT1=
EXTT2=
PLAYORDER=
